<?xml version="1.0" encoding="utf-8"?>
<!-- Generator: Adobe Illustrator 25.0.0, SVG Export Plug-In . SVG Version: 6.00 Build 0)  -->
<svg version="1.1" xmlns="http://www.w3.org/2000/svg" xmlns:xlink="http://www.w3.org/1999/xlink" x="0px" y="0px"
	 viewBox="0 0 472.1 406" style="enable-background:new 0 0 472.1 406;" xml:space="preserve">
<style type="text/css">
	.st0{fill:#2A2F31;}
	.st1{fill:#2E3031;}
	.st2{fill:#DC5D3C;}
	.st3{fill:#383A3A;}
	.st4{fill:#86A069;}
	.st5{fill:#647E4C;}
	.st6{fill:#96A971;}
	.st7{fill:#7D8F62;}
	.st8{fill:#798A60;}
	.st9{fill:#7C9264;}
	.st10{fill:#748B54;}
	.st11{fill:#7D4839;}
	.st12{fill:#7E8F62;}
	.st13{fill:#5D6946;}
	.st14{fill:#834F3E;}
	.st15{fill:#817653;}
	.st16{fill:#363D3C;}
	.st17{fill:#323735;}
	.st18{fill:#323A37;}
	.st19{fill:#91A26E;}
	.st20{fill:#97AA72;}
	.st21{fill:#3C413A;}
	.st22{fill:#73C28B;}
	.st23{fill:#99CFA5;}
	.st24{fill:#88C999;}
	.st25{fill:#519967;}
	.st26{fill:#89C999;}
	.st27{fill:#89A386;}
	.st28{fill:#FFFFFF;}
	.st29{fill:#5C7E5A;}
	.st30{fill:#000306;}
	.st31{fill:#5D7F5B;}
	.st32{fill:#6AB480;}
	.st33{fill:#6FBB85;}
	.st34{fill:#9ED2A9;}
	.st35{fill:#68B27E;}
	.st36{fill:#71BD87;}
	.st37{fill:#6EB984;}
	.st38{fill:#CBE5CF;}
	.st39{fill:#6CB682;}
	.st40{fill:#8ECB9D;}
	.st41{fill:#63AC78;}
	.st42{fill:#6DB782;}
	.st43{fill:#62AB78;}
	.st44{fill:#64AE79;}
	.st45{fill:#66AF7B;}
	.st46{fill:#70BB86;}
	.st47{fill:#6CB782;}
	.st48{fill:#6BB681;}
	.st49{fill:#69B37F;}
	.st50{fill:#6EB983;}
	.st51{fill:#68B17D;}
	.st52{fill:#6CB681;}
	.st53{fill:#66B07C;}
	.st54{fill:#63AD79;}
	.st55{fill:#69B37E;}
	.st56{fill:#63AC79;}
	.st57{fill:#6AB47F;}
	.st58{fill:#81C693;}
	.st59{fill:#6DB883;}
	.st60{fill:#81C794;}
	.st61{fill:#183328;}
	.st62{fill:#86A385;}
	.st63{fill:#7FC692;}
	.st64{fill:#85C896;}
	.st65{fill:#B5DBBB;}
	.st66{fill:#041A19;}
	.st67{fill:#67B17D;}
	.st68{fill:#7E9F81;}
	.st69{fill:#83A885;}
	.st70{fill:#7FA182;}
	.st71{fill:#7A9A7D;}
	.st72{fill:#82A383;}
	.st73{fill:#84A986;}
	.st74{fill:#9FD2AD;}
	.st75{fill:#7FA884;}
	.st76{fill:#82A283;}
	.st77{fill:#86A687;}
	.st78{fill:#7CA082;}
	.st79{fill:#84A684;}
	.st80{fill:#81A482;}
	.st81{fill:#85A886;}
	.st82{fill:#82A586;}
	.st83{fill:#84A685;}
	.st84{fill:#7D9D80;}
	.st85{fill:#86A887;}
	.st86{fill:#7C9D7F;}
	.st87{fill:#7EA082;}
	.st88{fill:#7E9F7F;}
	.st89{fill:#7EA081;}
	.st90{fill:#80A684;}
	.st91{fill:#7EA182;}
	.st92{fill:#84A283;}
	.st93{fill:#96CFA3;}
	.st94{fill:#7EA282;}
	.st95{fill:#87A686;}
	.st96{fill:#86A886;}
	.st97{fill:#85A783;}
	.st98{fill:#85A483;}
	.st99{fill:#84A784;}
	.st100{fill:#86A888;}
	.st101{fill:#81A284;}
	.st102{fill:#83A584;}
	.st103{fill:#86A685;}
	.st104{fill:#83AC88;}
	.st105{fill:#86A585;}
	.st106{fill:#80A484;}
	.st107{fill:#7D9C80;}
	.st108{fill:#85A684;}
	.st109{fill:#83AB87;}
	.st110{fill:#83AA86;}
	.st111{fill:#7B9D80;}
	.st112{fill:#7DA283;}
	.st113{fill:#82A684;}
	.st114{fill:#82A585;}
	.st115{fill:#87A787;}
	.st116{fill:#83A684;}
	.st117{fill:#81A281;}
	.st118{fill:#89A886;}
	.st119{fill:#87A885;}
	.st120{fill:#87A687;}
	.st121{fill:#82A687;}
	.st122{fill:#779A7C;}
	.st123{fill:#88A786;}
	.st124{fill:#81A887;}
	.st125{fill:#86A684;}
	.st126{fill:#81A582;}
	.st127{fill:#88A986;}
	.st128{fill:#82AB87;}
	.st129{fill:#83A788;}
	.st130{fill:#89A786;}
	.st131{fill:#82AA87;}
	.st132{fill:#84A584;}
	.st133{fill:#7FA280;}
	.st134{fill:#85A889;}
	.st135{fill:#80A081;}
	.st136{fill:#87A684;}
	.st137{fill:#83A786;}
	.st138{fill:#80A683;}
	.st139{fill:#89A884;}
	.st140{fill:#86A885;}
	.st141{fill:#87A887;}
	.st142{fill:#7EA080;}
	.st143{fill:#85A988;}
	.st144{fill:#86A785;}
	.st145{fill:#84A486;}
	.st146{fill:#7FA583;}
	.st147{fill:#809F7E;}
	.st148{fill:#7FA685;}
	.st149{fill:#7FA282;}
	.st150{fill:#7E9E80;}
	.st151{fill:#85A685;}
	.st152{fill:#719578;}
	.st153{fill:#7C9A7F;}
	.st154{fill:#81A784;}
	.st155{fill:#83A583;}
	.st156{fill:#87A785;}
	.st157{fill:#7D9F80;}
	.st158{fill:#88A887;}
	.st159{fill:#85A784;}
	.st160{fill:#82A584;}
	.st161{fill:#84A686;}
	.st162{fill:#80A685;}
	.st163{fill:#86A787;}
	.st164{fill:#84A688;}
	.st165{fill:#84AD87;}
	.st166{fill:#7FA184;}
	.st167{fill:#82A686;}
	.st168{fill:#85A585;}
	.st169{fill:#83AA87;}
	.st170{fill:#81A083;}
	.st171{fill:#799A7B;}
	.st172{fill:#83A783;}
	.st173{fill:#83A485;}
	.st174{fill:#80A585;}
	.st175{fill:#85A584;}
	.st176{fill:#85A686;}
	.st177{fill:#88A684;}
	.st178{fill:#83A784;}
	.st179{fill:#83A585;}
	.st180{fill:#7C9E80;}
	.st181{fill:#82A381;}
	.st182{fill:#86A486;}
	.st183{fill:#739679;}
	.st184{fill:#82A483;}
	.st185{fill:#82A785;}
	.st186{fill:#80A383;}
	.st187{fill:#85A785;}
	.st188{fill:#83A685;}
	.st189{fill:#86A284;}
	.st190{fill:#83A683;}
	.st191{fill:#88A685;}
	.st192{fill:#FEFEFE;}
	.st193{fill:#5D7F5A;}
	.st194{fill:#FEFEFD;}
	.st195{fill:#5D7E5A;}
	.st196{fill:#F9F9F8;}
	.st197{fill:#74BE89;}
	.st198{fill:#F6F6F6;}
	.st199{fill:#88A286;}
	.st200{fill:#597B58;}
	.st201{fill:#5A7B58;}
	.st202{fill:#000903;}
	.st203{fill:#547555;}
	.st204{fill:#374E40;}
	.st205{fill:#354D3E;}
	.st206{fill:#21362A;}
	.st207{fill:#7A937B;}
	.st208{fill:#344A3D;}
	.st209{fill:#32493C;}
	.st210{fill:#30473A;}
	.st211{fill:#081D16;}
	.st212{fill:#1C2E24;}
	.st213{fill:#375242;}
	.st214{fill:#375142;}
	.st215{fill:#375041;}
	.st216{fill:#3F5944;}
	.st217{fill:#000804;}
	.st218{fill:#000201;}
	.st219{fill:#112322;}
	.st220{fill:#5B7951;}
	.st221{fill:#709075;}
	.st222{fill:#000001;}
	.st223{fill:#87A582;}
	.st224{fill:#87A784;}
	.st225{fill:#84A485;}
	.st226{fill:#48604A;}
	.st227{fill:#5B7553;}
	.st228{fill:#5B7550;}
	.st229{fill:#5B7B52;}
	.st230{fill:#000003;}
	.st231{fill:#010108;}
	.st232{fill:#06060E;}
	.st233{fill:#05050E;}
	.st234{fill:#2A3F32;}
	.st235{fill:#3C5745;}
	.st236{fill:#395445;}
	.st237{fill:#051A10;}
	.st238{fill:#041910;}
	.st239{fill:#182C21;}
	.st240{fill:#000104;}
	.st241{fill:#010209;}
	.st242{fill:#03040B;}
	.st243{fill:#04040C;}
	.st244{fill:#04050C;}
	.st245{fill:#04050D;}
	.st246{fill:#07070F;}
	.st247{fill:#000107;}
	.st248{fill:#000007;}
	.st249{fill:#080810;}
	.st250{fill:#000A02;}
	.st251{fill:#000C02;}
	.st252{fill:#000C04;}
	.st253{fill:#1F3125;}
	.st254{fill:#000101;}
	.st255{fill:#001006;}
	.st256{fill:#051D18;}
	.st257{fill:#10251C;}
	.st258{fill:#3E5847;}
	.st259{fill:#000302;}
	.st260{fill:#000102;}
	.st261{fill:#000501;}
	.st262{fill:#000207;}
	.st263{fill:#041911;}
	.st264{fill:#000301;}
	.st265{fill:#000F06;}
	.st266{fill:#172E25;}
	.st267{fill:#020209;}
	.st268{fill:#000B03;}
	.st269{fill:#2F4538;}
	.st270{fill:#415947;}
	.st271{fill:#182B24;}
	.st272{fill:#375141;}
	.st273{fill:#041A13;}
	.st274{fill:#07211B;}
	.st275{fill:#04040D;}
	.st276{fill:#000402;}
	.st277{fill:#000702;}
	.st278{fill:#02170E;}
	.st279{fill:#000A01;}
	.st280{fill:#000E06;}
	.st281{fill:#142819;}
	.st282{fill:#01150E;}
	.st283{fill:#03180E;}
	.st284{fill:#122619;}
	.st285{fill:#1B2F21;}
	.st286{fill:#12251C;}
	.st287{fill:#00140A;}
	.st288{fill:#354C36;}
	.st289{fill:#061A14;}
	.st290{fill:#061A0E;}
	.st291{fill:#051A12;}
	.st292{fill:#031811;}
	.st293{fill:#1E3327;}
	.st294{fill:#24372B;}
	.st295{fill:#1A2D24;}
	.st296{fill:#2E4337;}
	.st297{fill:#10231A;}
	.st298{fill:#344A3C;}
	.st299{fill:#354D41;}
	.st300{fill:#1F3229;}
	.st301{fill:#344A38;}
	.st302{fill:#13261F;}
	.st303{fill:#00140B;}
	.st304{fill:#2C433B;}
	.st305{fill:#2B4539;}
	.st306{fill:#00140E;}
	.st307{fill:#2F473B;}
	.st308{fill:#263D35;}
	.st309{fill:#2D4334;}
	.st310{fill:#405940;}
	.st311{fill:#132621;}
	.st312{fill:#28401D;}
	.st313{fill:#324B37;}
	.st314{fill:#031812;}
	.st315{fill:#446044;}
	.st316{fill:#1F3324;}
	.st317{fill:#648654;}
	.st318{fill:#051B15;}
	.st319{fill:#0B1F14;}
	.st320{fill:#14261B;}
	.st321{fill:#172719;}
	.st322{fill:#597954;}
	.st323{fill:none;}
	.st324{fill:#DB623C;}
	.st325{clip-path:url(#SVGID_4_);fill:#FFFFFF;}
	.st326{clip-path:url(#SVGID_6_);fill:#FFFFFF;}
	.st327{fill:none;stroke:#FFFFFF;stroke-width:0.1014;stroke-miterlimit:10;}
	.st328{clip-path:url(#SVGID_8_);fill:none;stroke:#FFFFFF;stroke-width:0.1014;stroke-miterlimit:10;}
	.st329{clip-path:url(#SVGID_10_);fill:none;stroke:#FFFFFF;stroke-width:0.1014;stroke-miterlimit:10;}
	.st330{clip-path:url(#SVGID_12_);fill:none;stroke:#FFFFFF;stroke-width:0.1014;stroke-miterlimit:10;}
	.st331{clip-path:url(#SVGID_14_);fill:none;stroke:#FFFFFF;stroke-width:0.1014;stroke-miterlimit:10;}
	.st332{clip-path:url(#SVGID_16_);fill:none;stroke:#FFFFFF;stroke-width:0.1014;stroke-miterlimit:10;}
	.st333{clip-path:url(#SVGID_18_);fill:none;stroke:#FFFFFF;stroke-width:0.1014;stroke-miterlimit:10;}
	.st334{clip-path:url(#SVGID_20_);fill:none;stroke:#FFFFFF;stroke-width:0.1014;stroke-miterlimit:10;}
	.st335{clip-path:url(#SVGID_22_);fill:none;stroke:#FFFFFF;stroke-width:0.1014;stroke-miterlimit:10;}
	.st336{clip-path:url(#SVGID_24_);fill:none;stroke:#FFFFFF;stroke-width:0.1014;stroke-miterlimit:10;}
	.st337{clip-path:url(#SVGID_26_);fill:none;stroke:#FFFFFF;stroke-width:0.1014;stroke-miterlimit:10;}
	.st338{clip-path:url(#SVGID_28_);fill:none;stroke:#FFFFFF;stroke-width:0.1014;stroke-miterlimit:10;}
	.st339{fill:#9A6B9F;stroke:#000000;stroke-width:1.2325;stroke-miterlimit:10;}
	.st340{fill:#647E4C;stroke:#000000;stroke-width:1.2325;stroke-miterlimit:10;}
</style>
<g id="Layer_1">
	<g id="vLrYc5.tif">
		<g>
			<path d="M153.1,228.2c55.5,0,110.1,0,166.1,0c-7.3-7.7-13.9-14.6-20.6-21.5c-1.9-2-3.9-3.9-5.8-5.8c-6.8-7-7.4-13.3-1.9-18.9
				c5.5-5.7,11.9-5.3,18.9,1.5c9.1,8.9,18,17.9,27,26.9c6.7,6.7,13.5,13.4,20.2,20.2c7.5,7.7,7.7,13.3,0.4,20.8
				c-15.9,16.1-31.9,32.2-48,48c-8,7.8-18.3,5.4-21.5-4.5c-1.9-5.8,1.4-9.9,5.1-13.4c9-8.4,18.2-16.4,27.4-24.6
				c-0.7-0.9-1.4-1.8-2.1-2.7c-54.6,0-109.2,0-165.1,0c6.8,7.2,13.2,13.9,19.6,20.6c3.1,3.2,6.4,6.2,9.1,9.7
				c4.3,5.6,3.8,11.3-0.9,15.9c-4.9,4.8-11.2,5.3-16.4,0.2c-17.4-17-34.6-34.2-51.6-51.6c-4.9-5-4.9-10.9,0-15.9
				c17-17.4,34.2-34.6,51.6-51.6c5.1-5,11.6-4.5,16.4,0.3c5.1,5,5.4,11.1,0.1,16.9c-8.1,8.9-16.7,17.4-25,26.1
				C155.2,225.7,154.5,226.7,153.1,228.2z"/>
			<path d="M154.1,155.9c-6.1,5.5-12.1,11-18.2,16.5c-0.4-0.1-1-0.1-1.1-0.3c-8.6-14.7-21.6-20.6-38.2-20c-9.9,0.4-19.9,0-29.8,0.1
				c-21.1,0.2-37,14.7-39,35.7c-1.2,12.4-2.2,24.9-2.9,37.3c-1.1,18.2,9.1,28.8,27.2,28.9c11,0,22,0,31.7,0
				c7.1,8.7,13.5,16.6,20.4,24.9c-15.1,0-30.2,0-46,0c0,3,0,5.2,0,7.5c0,34.5,0,69,0,103.5c0,9.3-2.6,13.5-9.2,15.3
				c-7.1,2-13.2-1.4-15-8.6c-0.7-2.6-0.9-5.4-0.9-8.1c-0.1-35.4-0.1-70.7,0.1-106.1c0-4.5-1-6.9-5.4-9.1
				C9.8,264.3-0.7,249.7,0,229.3c0.7-18.3,2-36.8,5.1-54.8c4.3-24.5,27.7-44.2,52.4-46.3c20-1.7,40.2-3,60,1.5
				C133.5,133.2,145.6,142.4,154.1,155.9z"/>
			<path d="M414,279.2c-15.7,0-30.5,0-46,0c6.7-8.3,13-16.1,20.4-25.2c10,0,22.1,0.1,34.1,0c14.2-0.1,25-10.1,24.6-24.3
				c-0.5-15.8-1.7-31.7-4.1-47.3c-2.7-17.6-18-29.9-35.7-30.2c-12.3-0.2-24.6-0.2-36.8,0c-15,0.3-26.2,7.2-33.6,20.6
				c-6.5-5.8-12.7-11.4-19.1-17.2c10.4-15.6,25-25.2,43.6-27.3c21-2.3,42.3-3.9,63,2c24.7,7,39.6,24,43.6,49.2
				c2.6,16.2,3.5,32.8,4.1,49.2c0.6,20.9-9.9,35.7-28.3,45c-3.6,1.8-4.8,3.6-4.8,7.5c0.1,36.2,0.1,72.4,0.1,108.6
				c0,6.2-0.8,12.1-7.3,14.9c-8.9,4-17.4-2.3-17.8-13.2c-0.3-7.2-0.1-14.4-0.1-21.6c0-27.7,0-55.5,0-83.2
				C414,284.6,414,282.3,414,279.2z"/>
			<path d="M134.3,50.6c0,26.9-23.6,50.6-50.6,50.7c-27,0-50.7-23.6-50.7-50.6C33,23.7,56.6,0,83.6,0C110.6,0,134.2,23.6,134.3,50.6
				z M83.7,76.2c14.9,0,25.5-10.7,25.4-25.7c0-14.9-10.7-25.5-25.7-25.4c-14.9,0-25.4,10.7-25.4,25.7C58.1,65.7,68.8,76.2,83.7,76.2
				z"/>
			<path d="M337.8,50.5c0.1-27.1,23.8-50.7,50.8-50.5c27.1,0.1,50.6,23.8,50.5,50.8c-0.1,27-23.8,50.7-50.8,50.5
				C361.3,101.2,337.7,77.5,337.8,50.5z M388.4,76.2c14.9,0,25.6-10.6,25.6-25.5c0-14.9-10.6-25.6-25.5-25.6
				c-14.9,0-25.5,10.6-25.6,25.5C362.9,65.6,373.5,76.2,388.4,76.2z"/>
			<path d="M109.2,282.9c8.8,8.7,16.5,16.4,24.1,24.2c1,1,1,3.1,1,4.7c0.1,26.4,0.1,52.8,0,79.2c-0.1,11.6-8.1,17.8-17.6,13.8
				c-6.5-2.8-7.5-8.6-7.5-14.8c0-31.9,0-63.8,0-95.7C109.2,291,109.2,287.7,109.2,282.9z"/>
			<path d="M362.6,283.3c0.2,2.4,0.3,3.3,0.3,4.3c0,34.3,0,68.5,0,102.8c0,9.2-3.1,13.7-10.2,15.2c-6.2,1.3-12-1.9-13.8-8
				c-0.7-2.6-1.1-5.4-1.1-8.1c-0.1-25.4-0.2-50.7,0.1-76.1c0-2.9,1.6-6.5,3.6-8.7C347.9,297.6,354.9,291.1,362.6,283.3z"/>
		</g>
	</g>
</g>
<g id="Layer_2">
</g>
</svg>
