<?xml version="1.0" encoding="utf-8"?>
<!-- Generator: Adobe Illustrator 25.0.0, SVG Export Plug-In . SVG Version: 6.00 Build 0)  -->
<svg version="1.1" xmlns="http://www.w3.org/2000/svg" xmlns:xlink="http://www.w3.org/1999/xlink" x="0px" y="0px"
	 viewBox="0 0 461.1 446.5" style="enable-background:new 0 0 461.1 446.5;" xml:space="preserve">
<style type="text/css">
	.st0{fill:#2A2F31;}
	.st1{fill:#2E3031;}
	.st2{fill:#DC5D3C;}
	.st3{fill:#383A3A;}
	.st4{fill:#86A069;}
	.st5{fill:#647E4C;}
	.st6{fill:#96A971;}
	.st7{fill:#7D8F62;}
	.st8{fill:#798A60;}
	.st9{fill:#7C9264;}
	.st10{fill:#748B54;}
	.st11{fill:#7D4839;}
	.st12{fill:#7E8F62;}
	.st13{fill:#5D6946;}
	.st14{fill:#834F3E;}
	.st15{fill:#817653;}
	.st16{fill:#363D3C;}
	.st17{fill:#323735;}
	.st18{fill:#323A37;}
	.st19{fill:#91A26E;}
	.st20{fill:#97AA72;}
	.st21{fill:#3C413A;}
	.st22{fill:#73C28B;}
	.st23{fill:#99CFA5;}
	.st24{fill:#88C999;}
	.st25{fill:#519967;}
	.st26{fill:#89C999;}
	.st27{fill:#89A386;}
	.st28{fill:#FFFFFF;}
	.st29{fill:#5C7E5A;}
	.st30{fill:#000306;}
	.st31{fill:#5D7F5B;}
	.st32{fill:#6AB480;}
	.st33{fill:#6FBB85;}
	.st34{fill:#9ED2A9;}
	.st35{fill:#68B27E;}
	.st36{fill:#71BD87;}
	.st37{fill:#6EB984;}
	.st38{fill:#CBE5CF;}
	.st39{fill:#6CB682;}
	.st40{fill:#8ECB9D;}
	.st41{fill:#63AC78;}
	.st42{fill:#6DB782;}
	.st43{fill:#62AB78;}
	.st44{fill:#64AE79;}
	.st45{fill:#66AF7B;}
	.st46{fill:#70BB86;}
	.st47{fill:#6CB782;}
	.st48{fill:#6BB681;}
	.st49{fill:#69B37F;}
	.st50{fill:#6EB983;}
	.st51{fill:#68B17D;}
	.st52{fill:#6CB681;}
	.st53{fill:#66B07C;}
	.st54{fill:#63AD79;}
	.st55{fill:#69B37E;}
	.st56{fill:#63AC79;}
	.st57{fill:#6AB47F;}
	.st58{fill:#81C693;}
	.st59{fill:#6DB883;}
	.st60{fill:#81C794;}
	.st61{fill:#183328;}
	.st62{fill:#86A385;}
	.st63{fill:#7FC692;}
	.st64{fill:#85C896;}
	.st65{fill:#B5DBBB;}
	.st66{fill:#041A19;}
	.st67{fill:#67B17D;}
	.st68{fill:#7E9F81;}
	.st69{fill:#83A885;}
	.st70{fill:#7FA182;}
	.st71{fill:#7A9A7D;}
	.st72{fill:#82A383;}
	.st73{fill:#84A986;}
	.st74{fill:#9FD2AD;}
	.st75{fill:#7FA884;}
	.st76{fill:#82A283;}
	.st77{fill:#86A687;}
	.st78{fill:#7CA082;}
	.st79{fill:#84A684;}
	.st80{fill:#81A482;}
	.st81{fill:#85A886;}
	.st82{fill:#82A586;}
	.st83{fill:#84A685;}
	.st84{fill:#7D9D80;}
	.st85{fill:#86A887;}
	.st86{fill:#7C9D7F;}
	.st87{fill:#7EA082;}
	.st88{fill:#7E9F7F;}
	.st89{fill:#7EA081;}
	.st90{fill:#80A684;}
	.st91{fill:#7EA182;}
	.st92{fill:#84A283;}
	.st93{fill:#96CFA3;}
	.st94{fill:#7EA282;}
	.st95{fill:#87A686;}
	.st96{fill:#86A886;}
	.st97{fill:#85A783;}
	.st98{fill:#85A483;}
	.st99{fill:#84A784;}
	.st100{fill:#86A888;}
	.st101{fill:#81A284;}
	.st102{fill:#83A584;}
	.st103{fill:#86A685;}
	.st104{fill:#83AC88;}
	.st105{fill:#86A585;}
	.st106{fill:#80A484;}
	.st107{fill:#7D9C80;}
	.st108{fill:#85A684;}
	.st109{fill:#83AB87;}
	.st110{fill:#83AA86;}
	.st111{fill:#7B9D80;}
	.st112{fill:#7DA283;}
	.st113{fill:#82A684;}
	.st114{fill:#82A585;}
	.st115{fill:#87A787;}
	.st116{fill:#83A684;}
	.st117{fill:#81A281;}
	.st118{fill:#89A886;}
	.st119{fill:#87A885;}
	.st120{fill:#87A687;}
	.st121{fill:#82A687;}
	.st122{fill:#779A7C;}
	.st123{fill:#88A786;}
	.st124{fill:#81A887;}
	.st125{fill:#86A684;}
	.st126{fill:#81A582;}
	.st127{fill:#88A986;}
	.st128{fill:#82AB87;}
	.st129{fill:#83A788;}
	.st130{fill:#89A786;}
	.st131{fill:#82AA87;}
	.st132{fill:#84A584;}
	.st133{fill:#7FA280;}
	.st134{fill:#85A889;}
	.st135{fill:#80A081;}
	.st136{fill:#87A684;}
	.st137{fill:#83A786;}
	.st138{fill:#80A683;}
	.st139{fill:#89A884;}
	.st140{fill:#86A885;}
	.st141{fill:#87A887;}
	.st142{fill:#7EA080;}
	.st143{fill:#85A988;}
	.st144{fill:#86A785;}
	.st145{fill:#84A486;}
	.st146{fill:#7FA583;}
	.st147{fill:#809F7E;}
	.st148{fill:#7FA685;}
	.st149{fill:#7FA282;}
	.st150{fill:#7E9E80;}
	.st151{fill:#85A685;}
	.st152{fill:#719578;}
	.st153{fill:#7C9A7F;}
	.st154{fill:#81A784;}
	.st155{fill:#83A583;}
	.st156{fill:#87A785;}
	.st157{fill:#7D9F80;}
	.st158{fill:#88A887;}
	.st159{fill:#85A784;}
	.st160{fill:#82A584;}
	.st161{fill:#84A686;}
	.st162{fill:#80A685;}
	.st163{fill:#86A787;}
	.st164{fill:#84A688;}
	.st165{fill:#84AD87;}
	.st166{fill:#7FA184;}
	.st167{fill:#82A686;}
	.st168{fill:#85A585;}
	.st169{fill:#83AA87;}
	.st170{fill:#81A083;}
	.st171{fill:#799A7B;}
	.st172{fill:#83A783;}
	.st173{fill:#83A485;}
	.st174{fill:#80A585;}
	.st175{fill:#85A584;}
	.st176{fill:#85A686;}
	.st177{fill:#88A684;}
	.st178{fill:#83A784;}
	.st179{fill:#83A585;}
	.st180{fill:#7C9E80;}
	.st181{fill:#82A381;}
	.st182{fill:#86A486;}
	.st183{fill:#739679;}
	.st184{fill:#82A483;}
	.st185{fill:#82A785;}
	.st186{fill:#80A383;}
	.st187{fill:#85A785;}
	.st188{fill:#83A685;}
	.st189{fill:#86A284;}
	.st190{fill:#83A683;}
	.st191{fill:#88A685;}
	.st192{fill:#FEFEFE;}
	.st193{fill:#5D7F5A;}
	.st194{fill:#FEFEFD;}
	.st195{fill:#5D7E5A;}
	.st196{fill:#F9F9F8;}
	.st197{fill:#74BE89;}
	.st198{fill:#F6F6F6;}
	.st199{fill:#88A286;}
	.st200{fill:#597B58;}
	.st201{fill:#5A7B58;}
	.st202{fill:#000903;}
	.st203{fill:#547555;}
	.st204{fill:#374E40;}
	.st205{fill:#354D3E;}
	.st206{fill:#21362A;}
	.st207{fill:#7A937B;}
	.st208{fill:#344A3D;}
	.st209{fill:#32493C;}
	.st210{fill:#30473A;}
	.st211{fill:#081D16;}
	.st212{fill:#1C2E24;}
	.st213{fill:#375242;}
	.st214{fill:#375142;}
	.st215{fill:#375041;}
	.st216{fill:#3F5944;}
	.st217{fill:#000804;}
	.st218{fill:#000201;}
	.st219{fill:#112322;}
	.st220{fill:#5B7951;}
	.st221{fill:#709075;}
	.st222{fill:#000001;}
	.st223{fill:#87A582;}
	.st224{fill:#87A784;}
	.st225{fill:#84A485;}
	.st226{fill:#48604A;}
	.st227{fill:#5B7553;}
	.st228{fill:#5B7550;}
	.st229{fill:#5B7B52;}
	.st230{fill:#000003;}
	.st231{fill:#010108;}
	.st232{fill:#06060E;}
	.st233{fill:#05050E;}
	.st234{fill:#2A3F32;}
	.st235{fill:#3C5745;}
	.st236{fill:#395445;}
	.st237{fill:#051A10;}
	.st238{fill:#041910;}
	.st239{fill:#182C21;}
	.st240{fill:#000104;}
	.st241{fill:#010209;}
	.st242{fill:#03040B;}
	.st243{fill:#04040C;}
	.st244{fill:#04050C;}
	.st245{fill:#04050D;}
	.st246{fill:#07070F;}
	.st247{fill:#000107;}
	.st248{fill:#000007;}
	.st249{fill:#080810;}
	.st250{fill:#000A02;}
	.st251{fill:#000C02;}
	.st252{fill:#000C04;}
	.st253{fill:#1F3125;}
	.st254{fill:#000101;}
	.st255{fill:#001006;}
	.st256{fill:#051D18;}
	.st257{fill:#10251C;}
	.st258{fill:#3E5847;}
	.st259{fill:#000302;}
	.st260{fill:#000102;}
	.st261{fill:#000501;}
	.st262{fill:#000207;}
	.st263{fill:#041911;}
	.st264{fill:#000301;}
	.st265{fill:#000F06;}
	.st266{fill:#172E25;}
	.st267{fill:#020209;}
	.st268{fill:#000B03;}
	.st269{fill:#2F4538;}
	.st270{fill:#415947;}
	.st271{fill:#182B24;}
	.st272{fill:#375141;}
	.st273{fill:#041A13;}
	.st274{fill:#07211B;}
	.st275{fill:#04040D;}
	.st276{fill:#000402;}
	.st277{fill:#000702;}
	.st278{fill:#02170E;}
	.st279{fill:#000A01;}
	.st280{fill:#000E06;}
	.st281{fill:#142819;}
	.st282{fill:#01150E;}
	.st283{fill:#03180E;}
	.st284{fill:#122619;}
	.st285{fill:#1B2F21;}
	.st286{fill:#12251C;}
	.st287{fill:#00140A;}
	.st288{fill:#354C36;}
	.st289{fill:#061A14;}
	.st290{fill:#061A0E;}
	.st291{fill:#051A12;}
	.st292{fill:#031811;}
	.st293{fill:#1E3327;}
	.st294{fill:#24372B;}
	.st295{fill:#1A2D24;}
	.st296{fill:#2E4337;}
	.st297{fill:#10231A;}
	.st298{fill:#344A3C;}
	.st299{fill:#354D41;}
	.st300{fill:#1F3229;}
	.st301{fill:#344A38;}
	.st302{fill:#13261F;}
	.st303{fill:#00140B;}
	.st304{fill:#2C433B;}
	.st305{fill:#2B4539;}
	.st306{fill:#00140E;}
	.st307{fill:#2F473B;}
	.st308{fill:#263D35;}
	.st309{fill:#2D4334;}
	.st310{fill:#405940;}
	.st311{fill:#132621;}
	.st312{fill:#28401D;}
	.st313{fill:#324B37;}
	.st314{fill:#031812;}
	.st315{fill:#446044;}
	.st316{fill:#1F3324;}
	.st317{fill:#648654;}
	.st318{fill:#051B15;}
	.st319{fill:#0B1F14;}
	.st320{fill:#14261B;}
	.st321{fill:#172719;}
	.st322{fill:#597954;}
	.st323{fill:none;}
	.st324{fill:#DB623C;}
	.st325{clip-path:url(#SVGID_4_);fill:#FFFFFF;}
	.st326{clip-path:url(#SVGID_6_);fill:#FFFFFF;}
	.st327{fill:none;stroke:#FFFFFF;stroke-width:0.1014;stroke-miterlimit:10;}
	.st328{clip-path:url(#SVGID_8_);fill:none;stroke:#FFFFFF;stroke-width:0.1014;stroke-miterlimit:10;}
	.st329{clip-path:url(#SVGID_10_);fill:none;stroke:#FFFFFF;stroke-width:0.1014;stroke-miterlimit:10;}
	.st330{clip-path:url(#SVGID_12_);fill:none;stroke:#FFFFFF;stroke-width:0.1014;stroke-miterlimit:10;}
	.st331{clip-path:url(#SVGID_14_);fill:none;stroke:#FFFFFF;stroke-width:0.1014;stroke-miterlimit:10;}
	.st332{clip-path:url(#SVGID_16_);fill:none;stroke:#FFFFFF;stroke-width:0.1014;stroke-miterlimit:10;}
	.st333{clip-path:url(#SVGID_18_);fill:none;stroke:#FFFFFF;stroke-width:0.1014;stroke-miterlimit:10;}
	.st334{clip-path:url(#SVGID_20_);fill:none;stroke:#FFFFFF;stroke-width:0.1014;stroke-miterlimit:10;}
	.st335{clip-path:url(#SVGID_22_);fill:none;stroke:#FFFFFF;stroke-width:0.1014;stroke-miterlimit:10;}
	.st336{clip-path:url(#SVGID_24_);fill:none;stroke:#FFFFFF;stroke-width:0.1014;stroke-miterlimit:10;}
	.st337{clip-path:url(#SVGID_26_);fill:none;stroke:#FFFFFF;stroke-width:0.1014;stroke-miterlimit:10;}
	.st338{clip-path:url(#SVGID_28_);fill:none;stroke:#FFFFFF;stroke-width:0.1014;stroke-miterlimit:10;}
	.st339{fill:#9A6B9F;stroke:#000000;stroke-width:1.2325;stroke-miterlimit:10;}
	.st340{fill:#647E4C;stroke:#000000;stroke-width:1.2325;stroke-miterlimit:10;}
</style>
<g id="Layer_1">
	<g id="eq14nh.tif">
		<g>
			<path d="M217.4,94.1c-23.3,0-46.7-1-69.9,0.2c-36.6,1.8-65.9,19-89.2,46.7c-14.8,17.6-24.3,37.8-27.7,60.7
				c-1,6.6-1.9,13.3-2.5,20c-0.7,9.1-6.1,15-14.2,15.2c-7.6,0.1-14.1-5.5-14-14.3c0.1-10,1-20.2,3.1-30
				c11.7-53.8,42.3-92.6,93-114.9c21.2-9.3,43.7-12.6,66.7-12.8c38.7-0.3,77.4-0.2,116.1,0.1c7.1,0.1,9.8-1.6,9.5-9.2
				c-0.4-11.5,0.2-23,0.9-34.5c1.1-18.3,24.3-29,41-14.4c22.8,19.9,45.2,40.2,67.5,60.6c7.3,6.7,7,16.7-0.5,23.5
				c-22.1,19.9-44.4,39.6-66.6,59.5c-8.2,7.4-17.8,8.9-27.5,5.2c-10.9-4.2-14.6-14-15-25c-0.3-9.8-0.5-19.7,0.1-29.6
				c0.4-6.6-2.1-8-8.2-7.9c-20.9,0.4-41.8,0.1-62.7,0.1C217.4,93.6,217.4,93.8,217.4,94.1z M319.4,35.7c-0.6,0.5-1.2,1-1.9,1.5
				c0,28.1,0,56.3,0,84.4c0.6,0.5,1.2,0.9,1.8,1.4c16-14.6,32-29.1,48.5-44.2C351,63.7,335.2,49.7,319.4,35.7z"/>
			<path d="M244.6,381.8c-21.6,0-43.3,0.2-64.9-0.1c-5.9-0.1-7.3,1.8-7.2,7.4c0.1,12.5,0.7,25.1-1.3,37.3
				c-3.1,18.9-23.5,26.1-38.8,14.2c-10.4-8.1-19.9-17.3-29.8-26.1C90,403.4,77.6,392.1,65,381c-9.7-8.6-10.1-17.6-0.5-26.3
				c21.5-19.5,43.1-39,65-58.1c14.1-12.4,30.1-10.5,39.2,4.7c2.7,4.4,3.4,10.4,3.8,15.8c0.6,9.8,0.3,19.7,0.1,29.6
				c-0.1,4.8,1.3,6.9,6.5,6.9c42.1-0.1,84.2,1.1,126.2-0.4c52.1-1.9,90.4-27.7,114.3-73.9c8.5-16.5,12.2-34.8,13.4-53.4
				c0.7-10.1,5.9-16.6,14.2-16.7c7.8-0.1,14.4,7.1,14,17c-1.6,37.9-13.9,71.8-38.8,100.8c-19.9,23.2-44.4,39.8-74,47.4
				c-15.9,4.1-32.5,6.2-48.9,7.3C281.2,382.8,262.8,381.8,244.6,381.8z M144.2,323.3c-2.4,1.4-3.6,1.8-4.5,2.5
				c-14.4,12.8-28.7,25.6-43,38.3c-3.9,3.5-1.2,5.9,1.4,8.2c10.6,9.7,21.2,19.5,32,29.1c4.1,3.7,8.5,7.1,14.2,11.8
				C144.2,382.3,144.2,353.3,144.2,323.3z"/>
		</g>
	</g>
</g>
<g id="Layer_2">
</g>
</svg>
